<svg width="1440" height="200" viewBox="0 0 1440 200" fill="none" xmlns="http://www.w3.org/2000/svg">
<rect width="1440" height="200" fill="#F67E7E"/>
<mask id="mask0_0_4518" style="mask-type:luminance" maskUnits="userSpaceOnUse" x="0" y="0" width="1440" height="200">
<rect width="1440" height="200" fill="white"/>
</mask>
<g mask="url(#mask0_0_4518)">
<rect x="100" y="200" width="100" height="100" transform="rotate(180 100 200)" fill="#2C6269"/>
<path fill-rule="evenodd" clip-rule="evenodd" d="M100 300C155.228 300 200 255.228 200 200C200 144.772 155.228 100 100 100C44.7715 100 0 144.772 0 200C0 255.228 44.7715 300 100 300ZM100 233C118.225 233 133 218.225 133 200C133 181.775 118.225 167 100 167C81.7746 167 67 181.775 67 200C67 218.225 81.7746 233 100 233Z" fill="#004047"/>
<path fill-rule="evenodd" clip-rule="evenodd" d="M100 156H0V160H100V156ZM100 164H0V168H100V164ZM0 172H100V176H0V172ZM100 180H0V184H100V180ZM0 188H100V192H0V188ZM100 196H0V200H100V196Z" fill="#F67E7E"/>
<path fill-rule="evenodd" clip-rule="evenodd" d="M0 56H4V60H0V56ZM11 56H7V60H11V56ZM11 64H7V68H11V64ZM7 72H11V76H7V72ZM11 80H7V84H11V80ZM7 88H11V92H7V88ZM11 96H7V100H11V96ZM14 56H18V60H14V56ZM14 64H18V68H14V64ZM18 72H14V76H18V72ZM14 80H18V84H14V80ZM18 88H14V92H18V88ZM14 96H18V100H14V96ZM0 64H4V68H0V64ZM21 56H25V60H21V56ZM21 64H25V68H21V64ZM25 72H21V76H25V72ZM21 80H25V84H21V80ZM25 88H21V92H25V88ZM21 96H25V100H21V96ZM0 72H4V76H0V72ZM28 56H32V60H28V56ZM28 64H32V68H28V64ZM32 72H28V76H32V72ZM28 80H32V84H28V80ZM32 88H28V92H32V88ZM28 96H32V100H28V96ZM0 80H4V84H0V80ZM35 56H39V60H35V56ZM35 64H39V68H35V64ZM39 72H35V76H39V72ZM35 80H39V84H35V80ZM39 88H35V92H39V88ZM35 96H39V100H35V96ZM0 88H4V92H0V88ZM42 56H46V60H42V56ZM42 64H46V68H42V64ZM46 72H42V76H46V72ZM42 80H46V84H42V80ZM46 88H42V92H46V88ZM42 96H46V100H42V96ZM0 96H4V100H0V96ZM49 56H53V60H49V56ZM49 64H53V68H49V64ZM53 72H49V76H53V72ZM49 80H53V84H49V80ZM53 88H49V92H53V88ZM49 96H53V100H49V96Z" fill="#79C8C7"/>
</g>
</svg>
